<svg xmlns="http://www.w3.org/2000/svg" viewBox="0 0 640 900" fill="none">
  <defs>
    <linearGradient id="bg" x1="320" y1="0" x2="320" y2="900" gradientUnits="userSpaceOnUse">
      <stop stop-color="#07131B"/>
      <stop offset="0.5" stop-color="#102433"/>
      <stop offset="1" stop-color="#04070C"/>
    </linearGradient>
    <linearGradient id="halo" x1="122" y1="170" x2="520" y2="470" gradientUnits="userSpaceOnUse">
      <stop stop-color="#86E2FF" stop-opacity="0.26"/>
      <stop offset="1" stop-color="#86E2FF" stop-opacity="0"/>
    </linearGradient>
    <linearGradient id="coat" x1="314" y1="316" x2="314" y2="830" gradientUnits="userSpaceOnUse">
      <stop stop-color="#1F3D4B"/>
      <stop offset="1" stop-color="#0B1118"/>
    </linearGradient>
  </defs>

  <rect width="640" height="900" fill="url(#bg)"/>
  <circle cx="154" cy="166" r="106" fill="#82D6FF" fill-opacity="0.12"/>
  <circle cx="154" cy="166" r="72" fill="#82D6FF" fill-opacity="0.2"/>
  <path d="M0 198H640V420C552 470 438 500 312 498C190 496 84 456 0 386V198Z" fill="url(#halo)"/>
  <rect x="474" y="124" width="36" height="112" rx="12" fill="#C7F6FF" fill-opacity="0.15"/>
  <rect x="436" y="162" width="112" height="36" rx="12" fill="#C7F6FF" fill-opacity="0.15"/>

  <path d="M0 506L84 462L138 494L212 434L280 482L340 420L406 470L486 404L640 492V900H0V506Z" fill="#081019"/>
  <path d="M0 632L72 596L130 626L212 566L292 626L368 554L450 622L528 566L640 634V900H0V632Z" fill="#03060A"/>
  <rect x="432" y="610" width="96" height="44" rx="10" fill="#132630"/>
  <rect x="446" y="624" width="18" height="10" rx="4" fill="#5DC8FF"/>
  <rect x="470" y="624" width="18" height="10" rx="4" fill="#FF6B6B"/>

  <ellipse cx="316" cy="786" rx="136" ry="38" fill="#000000" fill-opacity="0.34"/>
  <circle cx="316" cy="248" r="48" fill="#304550"/>
  <path d="M274 304L358 304L404 470L354 640H274L222 470L274 304Z" fill="url(#coat)"/>
  <path d="M290 334H340V432H290V334Z" fill="#DBF6FF"/>
  <path d="M266 358H364V404H266V358Z" fill="#DBF6FF"/>
  <path d="M222 360L260 388L238 522L192 506L222 360Z" fill="#111820"/>
  <path d="M376 362L412 388L430 516L388 524L376 362Z" fill="#111820"/>
  <path d="M406 494H492L492 568H406V494Z" fill="#8ACFFF"/>
  <rect x="430" y="522" width="40" height="18" fill="#F5FBFF"/>
  <rect x="442" y="510" width="16" height="42" fill="#F5FBFF"/>
  <path d="M278 640H320L304 854H258L278 640Z" fill="#151D24"/>
  <path d="M322 640H366L396 854H346L322 640Z" fill="#151D24"/>
  <rect x="244" y="844" width="74" height="20" rx="10" fill="#23313C"/>
  <rect x="334" y="844" width="74" height="20" rx="10" fill="#23313C"/>
  <text x="62" y="118" fill="#D8F5FF" fill-opacity="0.08" font-family="Georgia, serif" font-size="82" font-weight="700" letter-spacing="6">MEDIC</text>
</svg>
